<?xml version="1.0" encoding="utf-8"?>
<!-- Generator: Adobe Illustrator 25.2.3, SVG Export Plug-In . SVG Version: 6.00 Build 0)  -->
<svg version="1.1" id="Camada_1" xmlns="http://www.w3.org/2000/svg" xmlns:xlink="http://www.w3.org/1999/xlink" x="0px" y="0px"
	 viewBox="0 0 162 223" style="enable-background:new 0 0 162 223;" xml:space="preserve">
<style type="text/css">
	.st0{fill:#880E4F;}
	.st1{fill:#D81B60;}
	.st2{fill:#FFFFFF;}
</style>
<g>
	<path class="st0" d="M102,8.4c3.6,0,7,1.4,9.6,3.9c13.1,12.8,23.4,27.8,30.6,44.5c7.4,17.3,11.2,35.8,11.2,54.8
		c0,19-3.8,37.5-11.2,54.8c-7.2,16.7-17.5,31.7-30.6,44.5c-2.6,2.5-6,3.9-9.6,3.9c-2.9,0-5.7-0.9-8.1-2.6l-79.4-57
		c-3.6-2.6-5.7-6.8-5.7-11.2V79.2c0-4.4,2.1-8.6,5.7-11.2L94,11C96.3,9.3,99.1,8.4,102,8.4 M102,0.2c-4.6,0-9.1,1.4-12.9,4.1
		l-79.4,57c-5.8,4.1-9.2,10.8-9.2,17.9v64.9c0,7.1,3.4,13.8,9.2,17.9l79.4,57c3.8,2.7,8.2,4.1,12.9,4.1c5.8,0,11.2-2.2,15.3-6.3
		c13.9-13.6,24.7-29.4,32.4-47.2c7.9-18.4,11.9-37.9,11.9-58.1s-4-39.7-11.9-58.1c-7.6-17.7-18.5-33.6-32.4-47.2
		C113.2,2.4,107.8,0.2,102,0.2L102,0.2z"/>
	<path class="st1" d="M83.8,73c-0.8,0-1.4-0.6-1.4-1.4c0-0.8,0.6-1.4,1.4-1.4c4.7,0,8.6-3.9,8.6-8.6c0-0.8,0.6-1.4,1.4-1.4
		s1.4,0.6,1.4,1.4C95.2,67.9,90.1,73,83.8,73z"/>
	<g>
		<path class="st1" d="M102,211.5c-2.2,0-4.3-0.7-6-1.9l-0.6-0.5l2.5-3.3c0.2,0.2,0.5,0.3,0.8,0.3c0.7,0,1.3-0.5,1.3-1.3v-60
			c0-3.3-1.6-6.4-4.3-8.4l-9.5-6.3c-0.7-0.5-1.3-0.7-2.1-0.7c-1.7,0-3.5,1.3-3.5,3.5v3.6c0,4.6-3.7,8.3-8.3,8.3c-0.2,0-0.4,0-0.5,0
			c-4.3-0.3-7.7-4-7.7-8.5v-8.4c0-2-1.2-7.2-6.9-7.2c-5.4,0-7.6,5.1-7.6,7.2v19.6c0,4.6-3.7,8.3-8.3,8.3c-0.2,0-0.4,0-0.5,0
			c-4.3-0.3-7.7-4-7.7-8.5V92.4c0-1.1-0.5-2.1-1.4-2.8L22.1,83c-0.7-0.5-1.3-0.7-2.1-0.7c-1.7,0-3.5,1.3-3.5,3.4l-4.1,0.1l-0.3-6.5
			c0-3.4,1.6-6.5,4.3-8.5l79.4-57c1.8-1.3,3.9-1.9,6-1.9c2.7,0,5.2,1,7.2,2.9c26.3,25.7,40.7,60.1,40.7,96.9
			c0,36.8-14.5,71.2-40.7,96.9C107.2,210.5,104.7,211.5,102,211.5L102,211.5z M82.2,62.5c-2.5,2.8-3.9,6.4-3.9,10.1
			c0,8.4,6.8,15.1,15.1,15.1s15.1-6.8,15.1-15.1s-6.8-15.1-15.1-15.1c-3.1,0-6,0.9-8.5,2.6l-1.4,1l0,0L82.2,62.5z M66.5,51.4
			c6,1.1,11.4,4,15.6,8.3l0,0C77.9,55.4,72.5,52.5,66.5,51.4l0-2.1C66.5,49.3,66.5,51.4,66.5,51.4z"/>
		<path class="st2" d="M102,13.9c2.1,0,4.1,0.8,5.7,2.3c24.8,24.2,40.1,58,40.1,95.4s-15.4,71.2-40.1,95.4c-1.6,1.5-3.6,2.3-5.7,2.3
			c-1.7,0-3.4-0.5-4.8-1.6l-0.5-0.4c0.6,0.4,1.3,0.6,2,0.6c1.8,0,3.4-1.4,3.4-3.4v-60c0-4-1.9-7.7-5.1-10l-9.5-6.3
			c-1-0.7-2.1-1.1-3.2-1.1c-2.9,0-5.5,2.3-5.5,5.5v3.6c0,3.4-2.8,6.2-6.2,6.2c-0.1,0-0.3,0-0.4,0c-3.3-0.2-5.8-3.1-5.8-6.4v-8.4
			c0-3.6-2.3-9.3-9-9.3s-9.6,6-9.6,9.3v19.6c0,3.4-2.8,6.2-6.2,6.2c-0.1,0-0.3,0-0.4,0c-3.3-0.2-5.8-3.1-5.8-6.4V92.4
			c0-1.8-0.8-3.4-2.3-4.5l-9.7-6.6c-1-0.7-2.1-1.1-3.2-1.1c-2.8,0-5.5,2.2-5.5,5.5l-0.3-6.5c0-2.7,1.3-5.2,3.4-6.7l79.4-57
			C98.6,14.4,100.3,13.9,102,13.9 M93.5,89.8c9.5,0,17.2-7.7,17.2-17.2c0-9.5-7.7-17.2-17.2-17.2c-3.6,0-7,1.1-9.7,3
			c-4.5-4.7-10.4-7.8-16.9-9.1c-0.1,0-0.3,0-0.4,0c-1,0-1.8,0.7-2,1.7c-0.2,1.1,0.5,2.2,1.7,2.4c5.6,1,10.6,3.7,14.5,7.7
			c-2.7,3-4.4,7.1-4.4,11.5C76.2,82.1,83.9,89.8,93.5,89.8 M102,9.8c-2.6,0-5.1,0.8-7.2,2.3l-79.4,57c-3.2,2.3-5.2,6.1-5.2,10.1v0.1
			l0,0.1l0.3,6.5l8.3-0.2c0-1,0.8-1.4,1.4-1.4c0.3,0,0.5,0.1,0.8,0.3l0.1,0l0.1,0l9.6,6.5c0.3,0.3,0.5,0.7,0.5,1.1v54.8
			c0,5.5,4.2,10.2,9.6,10.5c0.2,0,0.5,0,0.7,0c5.7,0,10.3-4.6,10.3-10.3v-19.6c0-1.1,1.3-5.2,5.5-5.2c4.8,0,4.8,5.1,4.8,5.2v8.4
			c0,5.5,4.2,10.2,9.6,10.5c0.2,0,0.5,0,0.7,0c5.7,0,10.3-4.6,10.3-10.3v-3.6c0-1,0.8-1.4,1.4-1.4c0.3,0,0.5,0.1,0.8,0.3l0.1,0
			l0.1,0l9.5,6.3c2.1,1.6,3.4,4,3.4,6.6v60c0-0.3,0.2-0.7,0.7-0.7c0.2,0,0.3,0.1,0.4,0.1l-5,6.6l0.5,0.4l0.1,0.1l0.1,0.1
			c2.1,1.5,4.6,2.3,7.2,2.3c3.2,0,6.3-1.2,8.6-3.5c13-12.7,23.1-27.5,30.3-44.1c7.4-17.2,11.1-35.4,11.1-54.3s-3.7-37.1-11.1-54.3
			c-7.1-16.6-17.3-31.4-30.3-44.1C108.3,11,105.2,9.8,102,9.8L102,9.8z M84.8,62.7l1.3-0.9c2.2-1.5,4.7-2.3,7.4-2.3
			c7.2,0,13.1,5.9,13.1,13.1s-5.9,13.1-13.1,13.1c-7.2,0-13.1-5.9-13.1-13.1c0-3.2,1.2-6.3,3.3-8.7L84.8,62.7L84.8,62.7z"/>
	</g>
	<g>
		<path class="st1" d="M49.7,140.5v-12.8c0-2.4,2.3-7.2,7.6-7.2c5.1,0,6.9,4.3,6.9,7.2v8.4c0,4.5,3.4,8.2,7.7,8.5c0.2,0,0.4,0,0.5,0
			c4.4,0,8-3.4,8.2-7.8l0.2-3.7l8.9,6.3c2.7,1.9,4.3,5.1,4.3,8.4v24.6L49.7,140.5z"/>
		<path class="st2" d="M57.3,122.5c4.8,0,4.8,5.1,4.8,5.2v8.4c0,5.5,4.2,10.2,9.6,10.5c0.2,0,0.5,0,0.7,0c5.5,0,10-4.3,10.3-9.7
			l5.9,4.2c2.2,1.6,3.4,4.1,3.4,6.7v20.5l-40.3-28.9v-11.8C51.8,126.6,53.1,122.5,57.3,122.5 M57.3,118.4c-6.7,0-9.6,6.2-9.6,9.3
			v11.8v2.1l1.7,1.2l40.3,28.9l6.5,4.7v-8v-20.5c0-4-1.9-7.8-5.2-10.1l-5.9-4.2l-6.1-4.3l-0.4,7.4c-0.2,3.3-2.9,5.8-6.2,5.8
			c-0.1,0-0.3,0-0.4,0c-3.2-0.2-5.8-3-5.8-6.4v-8.4C66.3,124.1,63.8,118.4,57.3,118.4L57.3,118.4z"/>
	</g>
	<g>
		<path class="st1" d="M12.2,113.6V93.1c0-2.7,2.2-4.8,4.8-4.8c1,0,2,0.3,2.8,0.9l13.4,9.6l0,29.9L12.2,113.6z"/>
		<path class="st2" d="M17,90.4c0.5,0,1.1,0.2,1.6,0.5l12.5,9l0,24.8l-16.8-12.1V93.1C14.3,91.5,15.6,90.4,17,90.4 M17,86.3
			c-3.8,0-6.9,3.1-6.9,6.9v19.4v2.1l1.7,1.2L28.7,128l6.5,4.7l0-8l0-24.8l0-2.1l-1.7-1.2l-12.5-9C19.9,86.7,18.5,86.3,17,86.3
			L17,86.3z"/>
	</g>
	<g>
		<path class="st1" d="M89.3,203.6c-1,0-2-0.3-2.8-0.9l-71.1-51c-2-1.4-3.2-3.7-3.2-6.2v-26l21,15.1v12.5c0,4.5,3.4,8.2,7.7,8.5
			c0.2,0,0.4,0,0.5,0c3.7,0,6.9-2.5,7.9-6l0.8-2.8l43.9,31.5v20.5c0,1.3-0.5,2.6-1.5,3.5C91.8,203.1,90.5,203.6,89.3,203.6
			C89.3,203.6,89.3,203.6,89.3,203.6z"/>
		<path class="st2" d="M14.3,123.6l16.9,12.1v11.4c0,5.5,4.2,10.2,9.6,10.5c0.2,0,0.5,0,0.7,0c4.7,0,8.7-3.2,9.9-7.5l40.7,29.2v19.4
			c0,1.6-1.3,2.8-2.8,2.8c-0.5,0-1.1-0.2-1.6-0.5l-71.1-51c-1.4-1-2.3-2.7-2.3-4.5V123.6 M10.1,115.5v8v22c0,3.1,1.5,6,4,7.8
			l71.1,51c1.2,0.8,2.6,1.3,4,1.3c3.8,0,6.9-3.1,6.9-6.9v-19.4v-2.1l-1.7-1.2l-40.7-29.2l-4.8-3.4l-1.6,5.6
			c-0.8,2.6-3.2,4.5-5.9,4.5c-0.1,0-0.3,0-0.4,0c-3.2-0.2-5.8-3-5.8-6.4v-11.4v-2.1l-1.7-1.2l-16.9-12.1L10.1,115.5L10.1,115.5z"/>
	</g>
</g>
</svg>
